<?xml version="1.0" standalone="no"?>
<!DOCTYPE svg PUBLIC "-//W3C//DTD SVG 20010904//EN"
 "http://www.w3.org/TR/2001/REC-SVG-20010904/DTD/svg10.dtd">
<svg version="1.0" xmlns="http://www.w3.org/2000/svg"
 width="512.000000pt" height="512.000000pt" viewBox="0 0 512.000000 512.000000"
 preserveAspectRatio="xMidYMid meet">

<g transform="translate(0.000000,512.000000) scale(0.100000,-0.100000)"
fill="#000000" stroke="none">
<path d="M345 5106 c-163 -41 -299 -180 -334 -344 -16 -74 -16 -2369 0 -2444
34 -159 153 -290 310 -339 57 -18 104 -19 850 -19 l789 0 0 -789 c0 -746 1
-793 19 -850 49 -157 180 -276 339 -310 74 -16 2369 -16 2444 0 168 35 311
178 347 347 16 74 16 2369 0 2444 -34 159 -153 291 -307 338 -62 19 -96 20
-853 20 l-789 0 0 789 c0 746 -1 793 -19 850 -49 157 -186 282 -342 311 -82
16 -2391 12 -2454 -4z m2432 -307 c30 -15 50 -33 63 -60 20 -38 20 -60 18
-1211 l-3 -1173 -22 -31 c-49 -68 33 -64 -1253 -64 l-1162 0 -39 22 c-25 14
-46 37 -59 63 -20 41 -20 62 -20 1193 0 791 3 1160 11 1179 14 37 47 73 84 89
24 11 245 13 1184 14 1154 0 1155 0 1198 -21z m1962 -1959 c27 -13 46 -33 60
-63 l21 -44 -2 -1166 c-3 -1160 -3 -1166 -24 -1193 -11 -15 -33 -37 -48 -48
-27 -21 -33 -21 -1193 -24 l-1166 -2 -44 21 c-30 14 -50 33 -63 60 -19 37 -20
62 -20 809 l0 770 259 0 c282 0 328 7 423 63 54 31 139 120 166 173 47 92 52
133 52 406 l0 258 770 0 c747 0 772 -1 809 -20z"/>
<path d="M1173 4060 c-46 -10 -80 -35 -99 -73 -20 -37 -21 -104 -4 -138 7 -13
76 -88 153 -166 l141 -142 -146 -149 c-99 -100 -149 -158 -153 -178 -4 -16 -8
-34 -10 -41 -7 -21 15 -82 41 -112 32 -38 82 -55 137 -46 37 7 59 24 195 158
l152 151 148 -146 c164 -163 196 -182 271 -159 48 14 98 68 106 115 13 68 -9
102 -163 258 l-146 148 151 152 c124 126 151 159 157 190 10 53 -9 112 -44
142 -31 26 -92 48 -113 41 -7 -2 -25 -6 -41 -10 -20 -4 -78 -54 -178 -153
l-148 -146 -148 146 c-101 101 -156 148 -177 153 -16 4 -34 8 -40 9 -5 1 -25
-1 -42 -4z"/>
<path d="M4090 2099 c-14 -5 -177 -161 -362 -347 l-338 -337 -152 152 c-162
160 -185 174 -259 159 -73 -14 -129 -97 -115 -168 11 -54 48 -97 257 -298 154
-149 207 -194 235 -200 79 -18 81 -16 511 413 288 287 406 411 414 435 25 76
-10 158 -81 186 -45 18 -73 19 -110 5z"/>
</g>
</svg>
